# Exported from Wings 3D 2.2.5
mtllib sign8.mtl
o grid66
#85 vertices, 69 faces
v -4.00000000 0.0000000e+0 -4.00000000
v -3.00000000 0.0000000e+0 -4.00000000
v -2.00000000 0.0000000e+0 -4.00000000
v -1.00000000 0.0000000e+0 -4.00000000
v 0.0000000e+0 0.0000000e+0 -4.00000000
v 1.00000000 0.0000000e+0 -4.00000000
v 2.00000000 0.0000000e+0 -4.00000000
v 3.00000000 0.0000000e+0 -4.00000000
v 4.00000000 0.0000000e+0 -4.00000000
v -4.00000000 0.0000000e+0 -3.00000000
v -3.00000000 0.0000000e+0 -3.00000000
v -2.00000000 0.0000000e+0 -3.00000000
v -1.00000000 0.0000000e+0 -3.00000000
v 0.0000000e+0 0.0000000e+0 -3.00000000
v 1.00000000 0.0000000e+0 -3.00000000
v 2.00000000 0.0000000e+0 -3.00000000
v 3.00000000 0.0000000e+0 -3.00000000
v 4.00000000 0.0000000e+0 -3.00000000
v -4.00000000 0.0000000e+0 -2.00000000
v -3.00000000 0.0000000e+0 -2.00000000
v -2.00000000 0.0000000e+0 -2.00000000
v -1.00000000 0.0000000e+0 -2.00000000
v 0.0000000e+0 0.0000000e+0 -2.00000000
v 1.00000000 0.0000000e+0 -2.00000000
v 2.00000000 0.0000000e+0 -2.00000000
v 3.00000000 0.0000000e+0 -2.00000000
v 4.00000000 0.0000000e+0 -2.00000000
v -4.00000000 0.0000000e+0 -1.00000000
v -3.00000000 0.0000000e+0 -1.00000000
v -2.00000000 0.0000000e+0 -1.00000000
v -1.00000000 0.0000000e+0 -1.00000000
v 0.0000000e+0 0.0000000e+0 -1.00000000
v 1.00000000 0.0000000e+0 -1.00000000
v 2.00000000 0.0000000e+0 -1.00000000
v 3.00000000 0.0000000e+0 -1.00000000
v 4.00000000 0.0000000e+0 -1.00000000
v -4.00000000 0.0000000e+0 0.0000000e+0
v -3.00000000 0.0000000e+0 0.0000000e+0
v -2.00000000 0.0000000e+0 0.0000000e+0
v -1.00000000 0.0000000e+0 0.0000000e+0
v 0.0000000e+0 0.0000000e+0 0.0000000e+0
v 1.00000000 0.0000000e+0 0.0000000e+0
v 2.00000000 0.0000000e+0 0.0000000e+0
v 3.00000000 0.0000000e+0 0.0000000e+0
v 4.00000000 0.0000000e+0 0.0000000e+0
v -4.00000000 0.0000000e+0 1.00000000
v -3.00000000 0.0000000e+0 1.00000000
v -2.00000000 0.0000000e+0 1.00000000
v -1.00000000 0.0000000e+0 1.00000000
v 0.0000000e+0 0.0000000e+0 1.00000000
v 1.00000000 0.0000000e+0 1.00000000
v 2.00000000 0.0000000e+0 1.00000000
v 3.00000000 0.0000000e+0 1.00000000
v 4.00000000 0.0000000e+0 1.00000000
v -4.00000000 0.0000000e+0 2.00000000
v -3.00000000 0.0000000e+0 2.00000000
v -2.00000000 0.0000000e+0 2.00000000
v -1.00000000 0.0000000e+0 2.00000000
v 0.0000000e+0 0.0000000e+0 2.00000000
v 1.00000000 0.0000000e+0 2.00000000
v 2.00000000 0.0000000e+0 2.00000000
v 3.00000000 0.0000000e+0 2.00000000
v 4.00000000 0.0000000e+0 2.00000000
v -4.00000000 0.0000000e+0 3.00000000
v -3.00000000 0.0000000e+0 3.00000000
v -2.00000000 0.0000000e+0 3.00000000
v -1.00000000 0.0000000e+0 3.00000000
v 0.0000000e+0 0.0000000e+0 3.00000000
v 1.00000000 0.0000000e+0 3.00000000
v 2.00000000 0.0000000e+0 3.00000000
v 3.00000000 0.0000000e+0 3.00000000
v 4.00000000 0.0000000e+0 3.00000000
v -4.00000000 0.0000000e+0 4.00000000
v -3.00000000 0.0000000e+0 4.00000000
v -2.00000000 0.0000000e+0 4.00000000
v -1.00000000 0.0000000e+0 4.00000000
v 0.0000000e+0 0.0000000e+0 4.00000000
v 1.00000000 0.0000000e+0 4.00000000
v 2.00000000 0.0000000e+0 4.00000000
v 3.00000000 0.0000000e+0 4.00000000
v 4.00000000 0.0000000e+0 4.00000000
v -4.00000000 -0.20000000 -4.00000000
v 4.00000000 -0.20000000 -4.00000000
v -4.00000000 -0.20000000 4.00000000
v 4.00000000 -0.20000000 4.00000000
vn -0.57735027 0.57735027 -0.57735027
vn 0.0000000e+0 0.89442719 -0.44721360
vn 0.0000000e+0 0.89442719 -0.44721360
vn 0.0000000e+0 0.89442719 -0.44721360
vn 0.0000000e+0 0.89442719 -0.44721360
vn 0.0000000e+0 0.89442719 -0.44721360
vn 0.0000000e+0 0.89442719 -0.44721360
vn 0.0000000e+0 0.89442719 -0.44721360
vn 0.57735027 0.57735027 -0.57735027
vn -0.44721360 0.89442719 0.0000000e+0
vn 0.0000000e+0 1.00000000 0.0000000e+0
vn 0.0000000e+0 1.00000000 0.0000000e+0
vn 0.0000000e+0 1.00000000 0.0000000e+0
vn 0.0000000e+0 1.00000000 0.0000000e+0
vn 0.0000000e+0 1.00000000 0.0000000e+0
vn 0.0000000e+0 1.00000000 0.0000000e+0
vn 0.0000000e+0 1.00000000 0.0000000e+0
vn 0.44721360 0.89442719 0.0000000e+0
vn -0.44721360 0.89442719 0.0000000e+0
vn 0.0000000e+0 1.00000000 0.0000000e+0
vn 0.0000000e+0 1.00000000 0.0000000e+0
vn 0.0000000e+0 1.00000000 0.0000000e+0
vn 0.0000000e+0 1.00000000 0.0000000e+0
vn 0.0000000e+0 1.00000000 0.0000000e+0
vn 0.0000000e+0 1.00000000 0.0000000e+0
vn 0.0000000e+0 1.00000000 0.0000000e+0
vn 0.44721360 0.89442719 0.0000000e+0
vn -0.44721360 0.89442719 0.0000000e+0
vn 0.0000000e+0 1.00000000 0.0000000e+0
vn 0.0000000e+0 1.00000000 0.0000000e+0
vn 0.0000000e+0 1.00000000 0.0000000e+0
vn 0.0000000e+0 1.00000000 0.0000000e+0
vn 0.0000000e+0 1.00000000 0.0000000e+0
vn 0.0000000e+0 1.00000000 0.0000000e+0
vn 0.0000000e+0 1.00000000 0.0000000e+0
vn 0.44721360 0.89442719 0.0000000e+0
vn -0.44721360 0.89442719 0.0000000e+0
vn 0.0000000e+0 1.00000000 0.0000000e+0
vn 0.0000000e+0 1.00000000 0.0000000e+0
vn 0.0000000e+0 1.00000000 0.0000000e+0
vn 0.0000000e+0 1.00000000 0.0000000e+0
vn 0.0000000e+0 1.00000000 0.0000000e+0
vn 0.0000000e+0 1.00000000 0.0000000e+0
vn 0.0000000e+0 1.00000000 0.0000000e+0
vn 0.44721360 0.89442719 0.0000000e+0
vn -0.44721360 0.89442719 0.0000000e+0
vn 0.0000000e+0 1.00000000 0.0000000e+0
vn 0.0000000e+0 1.00000000 0.0000000e+0
vn 0.0000000e+0 1.00000000 0.0000000e+0
vn 0.0000000e+0 1.00000000 0.0000000e+0
vn 0.0000000e+0 1.00000000 0.0000000e+0
vn 0.0000000e+0 1.00000000 0.0000000e+0
vn 0.0000000e+0 1.00000000 0.0000000e+0
vn 0.44721360 0.89442719 0.0000000e+0
vn -0.44721360 0.89442719 0.0000000e+0
vn 0.0000000e+0 1.00000000 0.0000000e+0
vn 0.0000000e+0 1.00000000 0.0000000e+0
vn 0.0000000e+0 1.00000000 0.0000000e+0
vn 0.0000000e+0 1.00000000 0.0000000e+0
vn 0.0000000e+0 1.00000000 0.0000000e+0
vn 0.0000000e+0 1.00000000 0.0000000e+0
vn 0.0000000e+0 1.00000000 0.0000000e+0
vn 0.44721360 0.89442719 0.0000000e+0
vn -0.44721360 0.89442719 0.0000000e+0
vn 0.0000000e+0 1.00000000 0.0000000e+0
vn 0.0000000e+0 1.00000000 0.0000000e+0
vn 0.0000000e+0 1.00000000 0.0000000e+0
vn 0.0000000e+0 1.00000000 0.0000000e+0
vn 0.0000000e+0 1.00000000 0.0000000e+0
vn 0.0000000e+0 1.00000000 0.0000000e+0
vn 0.0000000e+0 1.00000000 0.0000000e+0
vn 0.44721360 0.89442719 0.0000000e+0
vn -0.57735027 0.57735027 0.57735027
vn 0.0000000e+0 0.89442719 0.44721360
vn 0.0000000e+0 0.89442719 0.44721360
vn 0.0000000e+0 0.89442719 0.44721360
vn 0.0000000e+0 0.89442719 0.44721360
vn 0.0000000e+0 0.89442719 0.44721360
vn 0.0000000e+0 0.89442719 0.44721360
vn 0.0000000e+0 0.89442719 0.44721360
vn 0.57735027 0.57735027 0.57735027
vn -0.57735027 -0.57735027 -0.57735027
vn 0.57735027 -0.57735027 -0.57735027
vn -0.57735027 -0.57735027 0.57735027
vn 0.57735027 -0.57735027 0.57735027
g grid66_default
usemtl default
s 1
f 1//1 82//82 84//84 73//73 64//64 55//55 46//46 37//37 28//28 19//19 10//10
f 2//2 3//3 4//4 5//5 6//6 7//7 8//8 9//9 83//83 82//82 1//1
f 18//18 27//27 36//36 45//45 54//54 63//63 72//72 81//81 85//85 83//83 9//9
f 73//73 84//84 85//85 81//81 80//80 79//79 78//78 77//77 76//76 75//75 74//74
f 83//83 85//85 84//84 82//82
g grid66_tileA
usemtl tileA
s 1
f 2//2 11//11 12//12 3//3
f 4//4 13//13 14//14 5//5
f 6//6 15//15 16//16 7//7
f 8//8 17//17 18//18 9//9
f 10//10 19//19 20//20 11//11
f 12//12 21//21 22//22 13//13
f 14//14 23//23 24//24 15//15
f 16//16 25//25 26//26 17//17
f 20//20 29//29 30//30 21//21
f 22//22 31//31 32//32 23//23
f 24//24 33//33 34//34 25//25
f 26//26 35//35 36//36 27//27
f 28//28 37//37 38//38 29//29
f 30//30 39//39 40//40 31//31
f 32//32 41//41 42//42 33//33
f 34//34 43//43 44//44 35//35
f 38//38 47//47 48//48 39//39
f 40//40 49//49 50//50 41//41
f 42//42 51//51 52//52 43//43
f 44//44 53//53 54//54 45//45
f 46//46 55//55 56//56 47//47
f 48//48 57//57 58//58 49//49
f 50//50 59//59 60//60 51//51
f 52//52 61//61 62//62 53//53
f 56//56 65//65 66//66 57//57
f 58//58 67//67 68//68 59//59
f 60//60 69//69 70//70 61//61
f 62//62 71//71 72//72 63//63
f 64//64 73//73 74//74 65//65
f 66//66 75//75 76//76 67//67
f 68//68 77//77 78//78 69//69
f 70//70 79//79 80//80 71//71
g grid66_tileB
usemtl tileB
s 1
f 1//1 10//10 11//11 2//2
f 3//3 12//12 13//13 4//4
f 5//5 14//14 15//15 6//6
f 7//7 16//16 17//17 8//8
f 11//11 20//20 21//21 12//12
f 13//13 22//22 23//23 14//14
f 15//15 24//24 25//25 16//16
f 17//17 26//26 27//27 18//18
f 19//19 28//28 29//29 20//20
f 21//21 30//30 31//31 22//22
f 23//23 32//32 33//33 24//24
f 25//25 34//34 35//35 26//26
f 29//29 38//38 39//39 30//30
f 31//31 40//40 41//41 32//32
f 33//33 42//42 43//43 34//34
f 35//35 44//44 45//45 36//36
f 37//37 46//46 47//47 38//38
f 39//39 48//48 49//49 40//40
f 41//41 50//50 51//51 42//42
f 43//43 52//52 53//53 44//44
f 47//47 56//56 57//57 48//48
f 49//49 58//58 59//59 50//50
f 51//51 60//60 61//61 52//52
f 53//53 62//62 63//63 54//54
f 55//55 64//64 65//65 56//56
f 57//57 66//66 67//67 58//58
f 59//59 68//68 69//69 60//60
f 61//61 70//70 71//71 62//62
f 65//65 74//74 75//75 66//66
f 67//67 76//76 77//77 68//68
f 69//69 78//78 79//79 70//70
f 71//71 80//80 81//81 72//72
o Cube4
#36 vertices, 34 faces
v -4.25000000 0.0000000e+0 -0.25000000
v -4.25000000 0.0000000e+0 0.25000000
v -4.25000000 3.00000000 -0.25000000
v -4.25000000 3.00000000 0.25000000
v -3.75000000 0.0000000e+0 -0.25000000
v -3.75000000 0.0000000e+0 0.25000000
v -4.25000000 4.00000000 -0.25000000
v -4.25000000 4.00000000 0.25000000
v -3.86059200 3.00000000 -0.25000000
v -3.75000000 2.94470400 -0.25000000
v -3.75000000 2.94470400 0.25000000
v -3.86059200 3.00000000 0.25000000
v -3.86059200 4.00000000 0.25000000
v -3.86059200 4.00000000 -0.25000000
v -3.75000000 3.94470400 -0.13940800
v -3.75000000 3.94470400 0.13940800
v -3.75000000 3.05529600 0.13940800
v -3.75000000 3.05529600 -0.13940800
v 3.75000000 0.0000000e+0 -0.25000000
v 3.75000000 0.0000000e+0 0.25000000
v 4.25000000 0.0000000e+0 -0.25000000
v 4.25000000 0.0000000e+0 0.25000000
v 4.25000000 3.00000000 -0.25000000
v 4.25000000 3.00000000 0.25000000
v 4.25000000 4.00000000 0.25000000
v 4.25000000 4.00000000 -0.25000000
v 3.75000000 2.94470400 -0.25000000
v 3.86059200 3.00000000 -0.25000000
v 3.86059200 3.00000000 0.25000000
v 3.75000000 2.94470400 0.25000000
v 3.86059200 4.00000000 -0.25000000
v 3.86059200 4.00000000 0.25000000
v 3.75000000 3.94470400 0.13940800
v 3.75000000 3.94470400 -0.13940800
v 3.75000000 3.05529600 -0.13940800
v 3.75000000 3.05529600 0.13940800
vn -0.57735027 -0.57735027 -0.57735027
vn -0.57735027 -0.57735027 0.57735027
vn -0.70710678 0.0000000e+0 -0.70710678
vn -0.70710678 0.0000000e+0 0.70710678
vn 0.57735027 -0.57735027 -0.57735027
vn 0.57735027 -0.57735027 0.57735027
vn -0.57735027 0.57735027 -0.57735027
vn -0.57735027 0.57735027 0.57735027
vn 0.28957804 0.18554842 -0.93899752
vn 0.79259392 0.22645541 -0.56613852
vn 0.79259392 0.22645541 0.56613852
vn 0.28957804 0.18554842 0.93899752
vn 0.41237502 0.67677438 0.60985513
vn 0.41237502 0.67677438 -0.60985513
vn 0.41237502 0.67677438 -0.60985513
vn 0.41237502 0.67677438 0.60985513
vn 0.64818982 -0.10589052 0.75408034
vn 0.64818982 -0.10589052 -0.75408034
vn -0.57735027 -0.57735027 -0.57735027
vn -0.57735027 -0.57735027 0.57735027
vn 0.57735027 -0.57735027 -0.57735027
vn 0.57735027 -0.57735027 0.57735027
vn 0.70710678 0.0000000e+0 -0.70710678
vn 0.70710678 0.0000000e+0 0.70710678
vn 0.57735027 0.57735027 0.57735027
vn 0.57735027 0.57735027 -0.57735027
vn -0.79259392 0.22645541 -0.56613852
vn -0.28957804 0.18554842 -0.93899752
vn -0.28957804 0.18554842 0.93899752
vn -0.79259392 0.22645541 0.56613852
vn -0.41237502 0.67677438 -0.60985513
vn -0.41237502 0.67677438 0.60985513
vn -0.41237502 0.67677438 0.60985513
vn -0.41237502 0.67677438 -0.60985513
vn -0.64818982 -0.10589052 -0.75408034
vn -0.64818982 -0.10589052 0.75408034
g Cube4_sign
usemtl sign
s 1
f 86//86 90//90 91//91 87//87
f 87//87 89//89 88//88 86//86
f 87//87 91//91 96//96 97//97 89//89
f 88//88 92//92 99//99 94//94
f 88//88 94//94 95//95 90//90 86//86
f 89//89 93//93 92//92 88//88
f 90//90 95//95 96//96 91//91
f 93//93 98//98 99//99 92//92
f 94//94 103//103 95//95
f 95//95 103//103 102//102 96//96
f 96//96 102//102 97//97
f 97//97 98//98 93//93 89//89
f 97//97 102//102 101//101 98//98
f 98//98 101//101 100//100 99//99
f 99//99 100//100 103//103 94//94
f 100//100 119//119 120//120 103//103
f 101//101 118//118 119//119 100//100
f 102//102 121//121 118//118 101//101
f 103//103 120//120 121//121 102//102
f 104//104 106//106 107//107 105//105
f 105//105 107//107 109//109 114//114 115//115
f 105//105 115//115 112//112 104//104
f 106//106 108//108 109//109 107//107
f 108//108 111//111 110//110 109//109
f 108//108 113//113 116//116 111//111
f 110//110 111//111 116//116 117//117
f 112//112 113//113 108//108 106//106 104//104
f 112//112 120//120 113//113
f 113//113 120//120 119//119 116//116
f 114//114 121//121 115//115
f 115//115 121//121 120//120 112//112
f 116//116 119//119 118//118 117//117
f 117//117 114//114 109//109 110//110
f 117//117 118//118 121//121 114//114
